<?xml version="1.0" encoding="UTF-8"?>
<svg width="225px" height="258px" viewBox="0 0 225 258" version="1.1" xmlns="http://www.w3.org/2000/svg" xmlns:xlink="http://www.w3.org/1999/xlink">
    <!-- Generator: Sketch 49.2 (51160) - http://www.bohemiancoding.com/sketch -->
    <title>favicon</title>
    <desc>Created with Sketch.</desc>
    <defs></defs>
    <g id="Page-1" stroke="none" stroke-width="1" fill="none" fill-rule="evenodd">
        <g id="favicon" transform="translate(-29.000000, -21.000000)">
            <g transform="translate(29.000000, 21.000000)">
                <circle id="Path" fill="#B9FF4F" transform="translate(113.500000, 118.500000) scale(-1, 1) translate(-113.500000, -118.500000) " cx="113.5" cy="118.5" r="21.7226562"></circle>
                <path d="M182.604374,257.279426 L182.604374,85.8551578 C182.604374,67.7298785 177.837732,54.0772755 168.304306,44.8969392 C166.42116,43.6022764 163.478789,41.6014639 159.477104,38.8944417 C158.535531,38.188262 157.18204,37.8351774 155.416591,37.8351774 C154.239625,37.8351774 148.707967,40.3950405 138.821451,45.5148434 C128.934935,50.6346463 120.166668,53.1945094 112.516388,53.1945094 C105.689984,53.1945094 97.8926999,50.7229175 89.1243018,45.7796595 C80.3559037,40.8364015 75.5598384,38.3648096 74.7359621,38.3648096 C72.4997264,38.3648096 69.0865756,39.8359952 64.4964075,42.7784107 C61.0832055,44.8969498 58.1996816,47.4862366 55.8457493,50.5463487 C47.606986,60.6682579 43.4876661,76.2039785 43.4876661,97.1539766 C43.4876661,108.688245 44.7234621,119.869256 47.195091,130.697345 L53.9037648,161.416009 C59.082416,184.36685 61.6717028,203.080331 61.6717028,217.557016 C66.4972641,208.494376 73.8531924,197.842992 83.7397084,185.602543 L105.807714,158.238216 C96.7450744,158.944396 88.8595193,156.11972 82.150812,149.764102 C72.8527791,141.054552 68.2038324,130.344321 68.2038324,117.633086 C68.2038324,101.861739 74.8535916,89.6214743 88.1533095,80.9119245 C95.8035898,75.9686665 104.454161,73.4970746 114.105284,73.4970746 L117.106533,73.4970746 C123.46215,74.4386475 129.758825,75.3213589 135.996746,76.1452353 C141.175397,77.7929879 146.295123,82.5007821 151.356078,90.2687589 C157.358605,99.9198816 160.359824,110.100486 160.359824,120.810879 C160.359824,129.402732 154.887013,141.760691 143.941228,157.885128 C142.058082,160.59215 132.054019,173.479737 113.92874,196.548274 C110.633235,200.667656 106.63161,206.140466 101.923745,212.96687 L88.3298536,232.386715 C82.7981125,240.154692 77.8549287,248.452179 73.5001538,257.279426 L23.0085568,257.279426 C23.0085568,256.220156 23.0674043,254.543004 23.1851009,252.24792 C23.3027975,249.952836 23.3616449,248.216837 23.3616449,247.039871 C23.3616449,231.621614 21.8904593,214.320471 18.9480438,195.135922 C15.0640554,179.011485 9.65009214,154.64865 2.70599163,122.046687 C1.05823897,114.27871 0.234375,105.392749 0.234375,95.3885362 C0.234375,81.7357284 3.05905148,68.1419729 8.70848917,54.6068617 C14.8287133,40.1301776 23.0085056,29.008014 33.2481115,21.2400372 C48.7840651,9.58807193 63.3193795,2.76177045 76.8544906,0.760927928 C79.7969061,0.290141454 85.6522251,3.9386819 94.4206232,11.7066587 C103.189021,19.4746356 110.221289,23.3585657 115.517637,23.3585657 C121.284771,23.3585657 128.758394,19.5923304 137.93873,12.0597468 C147.119067,4.52716323 152.944962,0.760927928 155.416591,0.760927928 C162.360691,0.760927928 170.069704,2.76174043 178.543861,6.76342547 C186.194141,10.6474139 193.020442,16.0025297 199.02297,22.8289336 C208.438699,33.5393259 214.970764,43.7787781 218.619359,53.5475975 C222.503347,64.0225965 224.445312,75.5566921 224.445312,88.1502303 L224.445312,257.279426 L182.604374,257.279426 Z M94.3323511,118.162718 C94.3323511,123.459066 96.3331636,127.990318 100.334849,131.75661 C104.336534,135.522901 108.926633,137.406019 114.105284,137.406019 C119.519329,137.406019 124.138852,135.552325 127.963992,131.844882 C131.789132,128.137438 133.701673,123.576762 133.701673,118.162718 C133.701673,105.451483 127.169609,99.0959611 114.105284,99.0959611 C108.808936,99.0959611 104.189413,100.949655 100.246577,104.657099 C96.3037399,108.364542 94.3323511,112.86637 94.3323511,118.162718 Z" id="ต" fill="#04001E"></path>
            </g>
        </g>
    </g>
</svg>